<svg width="70" height="70" viewBox="0 0 70 70" fill="none" xmlns="http://www.w3.org/2000/svg">
<circle cx="35" cy="35" r="35" fill="#43CBB2" fill-opacity="0.08"/>
<path d="M35.0002 18.333C25.8168 18.333 18.3335 25.8163 18.3335 34.9997C18.3335 44.183 25.8168 51.6663 35.0002 51.6663C44.1835 51.6663 51.6668 44.183 51.6668 34.9997C51.6668 25.8163 44.1835 18.333 35.0002 18.333ZM42.9668 31.1663L33.5168 40.6163C33.2835 40.8497 32.9668 40.983 32.6335 40.983C32.3002 40.983 31.9835 40.8497 31.7502 40.6163L27.0335 35.8997C26.5502 35.4163 26.5502 34.6163 27.0335 34.133C27.5168 33.6497 28.3168 33.6497 28.8002 34.133L32.6335 37.9663L41.2002 29.3997C41.6835 28.9163 42.4835 28.9163 42.9668 29.3997C43.4502 29.883 43.4502 30.6663 42.9668 31.1663Z" fill="#1ABC9C"/>
</svg>
