<svg width="99" height="20" viewBox="0 0 99 20" fill="none" xmlns="http://www.w3.org/2000/svg">
<g clip-path="url(#clip0_1_754)">
<path d="M0 0.655029H2.97V15.108H0V0.655029Z" fill="#2C3E50"/>
<path d="M4.652 10.159C4.6479 9.12038 4.9521 8.10378 5.5261 7.23818C6.1001 6.37258 6.9181 5.69678 7.8765 5.29648C8.8349 4.89608 9.8905 4.78918 10.9097 4.98928C11.9289 5.18938 12.8658 5.68738 13.6017 6.42038C14.3376 7.15328 14.8394 8.08818 15.0436 9.10658C15.2478 10.125 15.1451 11.1811 14.7486 12.1411C14.3521 13.101 13.6796 13.9218 12.8163 14.4992C11.9529 15.0767 10.9377 15.385 9.899 15.385C9.2096 15.3929 8.5255 15.2632 7.8867 15.0036C7.2479 14.744 6.6673 14.3597 6.1788 13.8732C5.6902 13.3866 5.3036 12.8075 5.0415 12.1698C4.7793 11.5321 4.6469 10.8485 4.652 10.159ZM12.176 10.159C12.1636 9.71128 12.0195 9.27718 11.7618 8.91088C11.504 8.54468 11.144 8.26248 10.7268 8.09978C10.3095 7.93698 9.85359 7.90078 9.41589 7.99578C8.97819 8.09078 8.5782 8.31258 8.2659 8.63368C7.9537 8.95468 7.7429 9.36068 7.6602 9.80088C7.5774 10.241 7.6261 10.6958 7.8004 11.1084C7.9747 11.521 8.2667 11.873 8.6399 12.1205C9.0132 12.368 9.4512 12.5 9.899 12.5C10.2057 12.5082 10.5108 12.4527 10.7951 12.3371C11.0793 12.2215 11.3365 12.0483 11.5504 11.8284C11.7643 11.6084 11.9304 11.3465 12.038 11.0592C12.1457 10.7719 12.1927 10.4654 12.176 10.159Z" fill="#2C3E50"/>
<path d="M26.9831 5.20905V14.6091C26.9831 17.9351 24.3891 19.3411 21.7561 19.3411C20.8291 19.4105 19.9008 19.2232 19.0731 18.7999C18.2455 18.3765 17.5504 17.7334 17.0641 16.9411L19.5981 15.4761C19.8025 15.8891 20.1282 16.2298 20.5315 16.4527C20.9349 16.6755 21.3967 16.7699 21.8551 16.7231C22.1481 16.7637 22.4465 16.7379 22.7282 16.6476C23.0098 16.5573 23.2676 16.4048 23.4824 16.2015C23.6972 15.9981 23.8635 15.7491 23.9691 15.4727C24.0746 15.1964 24.1166 14.8999 24.0921 14.6051V13.7001C23.7443 14.1256 23.3017 14.4637 22.7996 14.6872C22.2975 14.9107 21.7501 15.0134 21.2011 14.9871C19.8949 14.9459 18.656 14.3981 17.7466 13.4595C16.8372 12.521 16.3287 11.2654 16.3287 9.95856C16.3287 8.65176 16.8372 7.39615 17.7466 6.45765C18.656 5.51905 19.8949 4.97126 21.2011 4.93006C21.7501 4.90376 22.2975 5.00646 22.7996 5.22996C23.3017 5.45346 23.7443 5.79156 24.0921 6.21706V5.20706L26.9831 5.20905ZM24.0931 9.96006C24.1131 9.48146 23.9893 9.00776 23.7378 8.60006C23.4863 8.19226 23.1185 7.86916 22.6818 7.67226C22.2451 7.47526 21.7595 7.41356 21.2874 7.49496C20.8153 7.57636 20.3784 7.79716 20.0328 8.12906C19.6873 8.46086 19.449 8.88846 19.3485 9.35686C19.2481 9.82526 19.2901 10.3131 19.4693 10.7574C19.6484 11.2017 19.9564 11.5823 20.3536 11.8501C20.7508 12.1179 21.2191 12.2607 21.6981 12.2601C22.0102 12.2819 22.3233 12.2381 22.6174 12.1315C22.9115 12.0249 23.18 11.8578 23.4056 11.6412C23.6312 11.4245 23.809 11.163 23.9274 10.8734C24.0458 10.5839 24.1023 10.2728 24.0931 9.96006Z" fill="#2C3E50"/>
<path d="M28.6652 10.159C28.6611 9.12038 28.9652 8.10378 29.5393 7.23818C30.1133 6.37258 30.9313 5.69678 31.8897 5.29648C32.8481 4.89608 33.9037 4.78918 34.9229 4.98928C35.9421 5.18938 36.879 5.68738 37.6149 6.42038C38.3508 7.15328 38.8526 8.08818 39.0568 9.10658C39.261 10.125 39.1583 11.1811 38.7618 12.1411C38.3653 13.101 37.6928 13.9218 36.8295 14.4992C35.9661 15.0767 34.9509 15.385 33.9122 15.385C33.2228 15.3929 32.5386 15.2632 31.8999 15.0036C31.2611 14.744 30.6805 14.3597 30.192 13.8732C29.7034 13.3866 29.3168 12.8075 29.0547 12.1698C28.7925 11.5321 28.6601 10.8485 28.6652 10.159ZM36.1892 10.159C36.1768 9.71128 36.0327 9.27718 35.775 8.91088C35.5172 8.54468 35.1572 8.26248 34.74 8.09978C34.3227 7.93698 33.8667 7.90078 33.4291 7.99578C32.9914 8.09078 32.5914 8.31258 32.2791 8.63368C31.9669 8.95468 31.7561 9.36068 31.6733 9.80088C31.5905 10.241 31.6393 10.6958 31.8136 11.1084C31.9879 11.521 32.2799 11.873 32.6531 12.1205C33.0264 12.368 33.4643 12.5 33.9122 12.5C34.2189 12.5082 34.524 12.4527 34.8082 12.3371C35.0925 12.2215 35.3497 12.0483 35.5636 11.8284C35.7775 11.6084 35.9436 11.3465 36.0512 11.0592C36.1589 10.7719 36.2059 10.4654 36.1892 10.159Z" fill="#2C3E50"/>
<path d="M40.5441 2.55593C40.5441 2.20348 40.6486 1.85895 40.8444 1.56591C41.0402 1.27286 41.3186 1.04445 41.6442 0.909578C41.9698 0.774698 42.3281 0.739408 42.6738 0.808168C43.0194 0.876928 43.337 1.04665 43.5862 1.29587C43.8354 1.54508 44.0051 1.8626 44.0739 2.20828C44.1426 2.55395 44.1073 2.91225 43.9725 3.23787C43.8376 3.56349 43.6092 3.8418 43.3161 4.03763C43.0231 4.23343 42.6786 4.33793 42.3261 4.33793C41.855 4.33323 41.4044 4.14403 41.0712 3.81081C40.7381 3.47763 40.5488 3.02709 40.5441 2.55593ZM40.8441 5.20893H43.8151V15.1089H40.8401L40.8441 5.20893Z" fill="#2C3E50"/>
<path d="M56.639 10.159C56.6733 10.8133 56.578 11.4679 56.3584 12.0852C56.1389 12.7025 55.7995 13.2703 55.3597 13.756C54.92 14.2416 54.3885 14.6356 53.796 14.9152C53.2034 15.1947 52.5615 15.3544 51.907 15.385C51.3566 15.415 50.8065 15.3222 50.2964 15.1133C49.7863 14.9043 49.3292 14.5845 48.958 14.177V19.068H45.988V5.20903H48.958V6.13903C49.3293 5.73183 49.7866 5.41223 50.2966 5.20353C50.8067 4.99473 51.3567 4.90203 51.907 4.93203C52.5616 4.96253 53.2037 5.12213 53.7964 5.40173C54.3891 5.68133 54.9206 6.07533 55.3604 6.56113C55.8002 7.04693 56.1396 7.61493 56.359 8.23243C56.5784 8.84983 56.6736 9.50463 56.639 10.159ZM53.669 10.159C53.6574 9.69573 53.5094 9.24613 53.2435 8.86643C52.9776 8.48683 52.6057 8.19403 52.1743 8.02483C51.7428 7.85553 51.271 7.81723 50.8179 7.91483C50.3648 8.01233 49.9506 8.24133 49.627 8.57313C49.3034 8.90503 49.0849 9.32483 48.9988 9.78033C48.9127 10.2357 48.9628 10.7063 49.1429 11.1334C49.3229 11.5605 49.625 11.9249 50.0112 12.1812C50.3974 12.4374 50.8505 12.5741 51.314 12.574C51.6322 12.5882 51.9498 12.5349 52.246 12.4177C52.5421 12.3006 52.8102 12.1221 53.0325 11.8941C53.2549 11.666 53.4265 11.3936 53.5362 11.0946C53.6459 10.7956 53.6912 10.4767 53.669 10.159Z" fill="#2C3E50"/>
<path d="M65.8042 12.138C65.8042 14.415 63.8252 15.385 61.6872 15.385C60.8232 15.4632 59.9559 15.2806 59.197 14.8605C58.4381 14.4405 57.8227 13.8025 57.4302 13.029L60.0032 11.564C60.1073 11.9215 60.3309 12.2326 60.6366 12.4451C60.9422 12.6577 61.3122 12.759 61.6832 12.732C62.3952 12.732 62.7522 12.514 62.7522 12.119C62.7522 11.029 57.8812 11.604 57.8812 8.17898C57.8812 6.01998 59.7032 4.93198 61.7622 4.93198C62.5362 4.90748 63.3022 5.09108 63.9812 5.46358C64.6602 5.83618 65.2272 6.38398 65.6222 7.04998L63.0882 8.41598C62.9772 8.15668 62.7922 7.93578 62.5562 7.78088C62.3202 7.62598 62.0442 7.54398 61.7622 7.54498C61.2472 7.54498 60.9302 7.74498 60.9302 8.09898C60.9342 9.22798 65.8042 8.47498 65.8042 12.138Z" fill="#2C3E50"/>
<path d="M76.6531 5.20898V15.109H73.6831V14.178C73.3401 14.5888 72.9051 14.9125 72.4131 15.1225C71.9211 15.3325 71.3871 15.4228 70.8531 15.386C68.8531 15.386 67.1531 13.961 67.1531 11.286V5.20898H70.1231V10.851C70.0981 11.0868 70.1251 11.3252 70.2021 11.5495C70.2781 11.7739 70.4031 11.9789 70.5671 12.1502C70.7311 12.3215 70.9301 12.455 71.1511 12.5415C71.3711 12.628 71.6081 12.6654 71.8451 12.651C72.9341 12.651 73.6861 12.018 73.6861 10.612V5.21198L76.6531 5.20898Z" fill="#2C3E50"/>
<path d="M93.683 9.02998V15.108H90.713V9.28698C90.713 8.29698 90.238 7.66398 89.288 7.66398C88.298 7.66398 87.743 8.35698 87.743 9.52498V15.108H84.774V9.28698C84.774 8.29698 84.299 7.66398 83.348 7.66398C82.358 7.66398 81.804 8.35698 81.804 9.52498V15.108H78.834V5.20798H81.804V6.11798C82.112 5.71428 82.516 5.39408 82.979 5.18678C83.443 4.97938 83.951 4.89148 84.457 4.93098C84.965 4.90608 85.471 5.01338 85.926 5.24228C86.38 5.47108 86.767 5.81388 87.05 6.23698C87.379 5.79428 87.815 5.44228 88.317 5.21388C88.819 4.98548 89.371 4.88818 89.921 4.93098C92.194 4.93198 93.683 6.55498 93.683 9.02998Z" fill="#2C3E50"/>
<path d="M96.1951 5.14799C97.4121 5.14799 98.3991 4.16119 98.3991 2.94399C98.3991 1.72675 97.4121 0.73999 96.1951 0.73999C94.9781 0.73999 93.9911 1.72675 93.9911 2.94399C93.9911 4.16119 94.9781 5.14799 96.1951 5.14799Z" fill="#2C3E50"/>
</g>
<defs>
<clipPath id="clip0_1_754">
<rect width="99" height="20" fill="white"/>
</clipPath>
</defs>
</svg>
